<svg width="84" height="78" viewBox="0 0 84 78" fill="none" xmlns="http://www.w3.org/2000/svg">
<path d="M75.0002 19.9476C80.0948 28.7716 82.6421 33.1836 82.8816 38.0084C82.9144 38.6692 82.9144 39.3311 82.8816 39.9919C82.6421 44.8166 80.0948 49.2287 75.0002 58.0527C69.9057 66.8768 67.3584 71.2888 63.2998 73.9086C62.744 74.2674 62.1707 74.5984 61.582 74.9003C57.2839 77.1053 52.1893 77.1053 42.0002 77.1053C31.8111 77.1053 26.7165 77.1053 22.4184 74.9003C21.8298 74.5984 21.2565 74.2674 20.7006 73.9086C16.6421 71.2888 14.0948 66.8768 9.00023 58.0527C3.90566 49.2287 1.35838 44.8166 1.11884 39.9919C1.08604 39.3311 1.08604 38.6692 1.11884 38.0084C1.35838 33.1836 3.90567 28.7716 9.00023 19.9476C14.0948 11.1235 16.6421 6.71152 20.7007 4.09169C21.2565 3.7329 21.8298 3.40191 22.4184 3.09994C26.7165 0.895019 31.8111 0.895019 42.0002 0.89502C52.1893 0.89502 57.2839 0.89502 61.582 3.09995C62.1707 3.40192 62.744 3.73291 63.2998 4.0917C67.3584 6.71152 69.9057 11.1235 75.0002 19.9476Z" stroke="#737373" stroke-width="1.5"/>
<path d="M34.0644 35.4157C34.8767 33.4431 36.4432 31.8766 38.4158 31.0643L49.1233 26.6553C52.4111 25.3016 55.6988 28.5893 54.345 31.8771L49.9361 42.5846C49.1238 44.5572 47.5573 46.1237 45.5846 46.936L34.8771 51.345C31.5894 52.6987 28.3016 49.411 29.6554 46.1232L34.0644 35.4157Z" stroke="#737373" stroke-width="1.5"/>
</svg>
