<svg width="90" height="89" viewBox="0 0 90 89" fill="none" xmlns="http://www.w3.org/2000/svg">
<path d="M37 63.2786C35.3432 63.2786 34 64.6218 34 66.2786C34 67.9355 35.3432 69.2786 37 69.2786H53C54.6569 69.2786 56 67.9355 56 66.2786C56 64.6218 54.6569 63.2786 53 63.2786H37Z" fill="#737373"/>
<path fill-rule="evenodd" clip-rule="evenodd" d="M45.8432 0.0154608C45.2813 -0.0051536 44.7188 -0.0051536 44.1568 0.0154608C40.4473 0.151544 37.107 1.41294 33.4446 3.5127C29.8755 5.55895 25.7666 8.54431 20.5531 12.3322L20.2697 12.5381C15.0561 16.326 10.947 19.3113 7.89802 22.0734C4.76927 24.9077 2.53741 27.6947 1.26169 31.1806C1.06843 31.7087 0.894613 32.2436 0.740571 32.7844C-0.276309 36.3545 -0.108858 39.921 0.756383 44.0531C1.59957 48.0798 3.16909 52.9102 5.16053 59.0391L5.26879 59.3723C7.26014 65.5012 8.82963 70.3316 10.5143 74.0849C12.2431 77.9364 14.204 80.9202 17.1251 83.2107C17.5676 83.5577 18.0226 83.8883 18.4894 84.202C21.5704 86.2723 25.0142 87.2151 29.2114 87.6691C33.3016 88.1115 38.3805 88.1115 44.8248 88.1115H45.1752C51.6195 88.1115 56.6985 88.1115 60.7887 87.6691C64.9859 87.2151 68.4296 86.2723 71.5107 84.202C71.9774 83.8883 72.4325 83.5577 72.875 83.2107C75.7961 80.9202 77.757 77.9364 79.4857 74.0849C81.1705 70.3316 82.7399 65.5011 84.7313 59.3721L84.8396 59.0389C86.8309 52.9104 88.4005 48.0796 89.2437 44.0531C90.1089 39.921 90.2763 36.3545 89.2595 32.7844C89.1054 32.2437 88.9316 31.7087 88.7384 31.1806C87.4626 27.6947 85.2308 24.9077 82.102 22.0734C79.053 19.3113 74.944 16.3259 69.7303 12.5381L69.4469 12.3321C64.2334 8.54427 60.1245 5.55893 56.5554 3.5127C52.893 1.41294 49.5527 0.151544 45.8432 0.0154608ZM44.3768 6.01143C44.7921 5.99619 45.2079 5.99619 45.6232 6.01143C48.005 6.0988 50.3771 6.88669 53.5712 8.7179C56.8262 10.5841 60.6756 13.3759 66.062 17.2893C71.4484 21.2027 75.293 24.001 78.0738 26.5201C80.8024 28.9919 82.2847 31.0045 83.1038 33.2427C83.2467 33.633 83.3751 34.0284 83.489 34.4281C84.1419 36.7203 84.1256 39.2198 83.371 42.8234C82.602 46.4958 81.1365 51.0195 79.0791 57.3516C77.0216 63.6837 75.5484 68.2048 74.0119 71.6279C72.5042 74.9868 71.0482 77.0185 69.1727 78.4892C68.8456 78.7456 68.5093 78.99 68.1643 79.2218C66.1861 80.5511 63.8038 81.308 60.1435 81.7039C56.4131 82.1074 51.658 82.1115 45 82.1115C38.3421 82.1115 33.5869 82.1074 29.8566 81.7039C26.1962 81.308 23.814 80.5511 21.8358 79.2218C21.4908 78.99 21.1544 78.7456 20.8274 78.4892C18.9518 77.0185 17.4958 74.9868 15.9882 71.6279C14.4517 68.2048 12.9784 63.6837 10.921 57.3516C8.86358 51.0195 7.39802 46.4958 6.62901 42.8234C5.87444 39.2198 5.85814 36.7203 6.51105 34.4281C6.6249 34.0284 6.75338 33.633 6.89622 33.2427C7.71531 31.0045 9.19768 28.9919 11.9263 26.5201C14.707 24.001 18.5516 21.2027 23.938 17.2893C29.3244 13.3759 33.1738 10.5841 36.4289 8.7179C39.6229 6.88669 41.9951 6.0988 44.3768 6.01143Z" fill="#737373"/>
</svg>
