<svg width="58" height="54" viewBox="0 0 58 54" fill="none" xmlns="http://www.w3.org/2000/svg">
<path d="M58 3C58 1.34315 56.6568 0 55 0C53.3431 0 52 1.34315 52 3V51C52 52.6569 53.3431 54 55 54C56.6568 54 58 52.6569 58 51V3Z" fill="#A7A7A7"/>
<path d="M32.1713 8.00733C27.7283 5.39723 24.2105 3.33061 21.3368 1.98213C18.4493 0.62718 15.7568 -0.233395 13.0496 0.0561264C8.92298 0.497444 5.1903 2.69812 2.76991 6.0878C1.189 8.30182 0.578388 11.075 0.288548 14.2896C-4.68194e-05 17.4903 -2.58895e-05 21.6189 5.75041e-07 26.8442V27.1557C-2.82737e-05 32.3811 -5.10812e-05 36.5097 0.288542 39.7104C0.578381 42.925 1.189 45.6982 2.7699 47.9122C5.19029 51.3019 8.92297 53.5026 13.0496 53.9439C15.7568 54.2334 18.4493 53.3728 21.3368 52.0179C24.2104 50.6694 27.7282 48.6028 32.1712 45.9927L32.4459 45.8314C36.8897 43.2209 40.4073 41.1544 42.9913 39.2969C45.5924 37.427 47.6534 35.4948 48.7473 32.9946C50.4175 29.1776 50.4176 24.8224 48.7474 21.0054C47.6534 18.5052 45.5924 16.573 42.9913 14.7031C40.4074 12.8456 36.8897 10.7792 32.446 8.16867L32.1713 8.00733Z" fill="#A7A7A7"/>
</svg>
