<svg width="58" height="54" viewBox="0 0 58 54" fill="none" xmlns="http://www.w3.org/2000/svg">
<path d="M6 2.99999C6 1.34315 4.65685 0 3 0C1.34315 0 0 1.34315 0 2.99999V51C0 52.6568 1.34315 54 3 54C4.65686 54 6 52.6568 6 51L6 2.99999Z" fill="#A7A7A7"/>
<path d="M44.9504 0.0561192C42.2432 -0.233403 39.5507 0.627171 36.6632 1.98212C33.7896 3.33059 30.2718 5.39716 25.8288 8.00723L25.5541 8.16863C21.1103 10.7791 17.5926 12.8456 15.0087 14.7031C12.4076 16.573 10.3467 18.5052 9.25265 21.0054C7.58245 24.8224 7.58245 29.1776 9.25265 32.9946C10.3466 35.4948 12.4076 37.427 15.0087 39.2969C17.5926 41.1544 21.1103 43.2208 25.554 45.8313L25.8289 45.9928C30.2718 48.6029 33.7896 50.6694 36.6632 52.0179C39.5507 53.3728 42.2432 54.2334 44.9504 53.9439C49.077 53.5026 52.8097 51.3019 55.2301 47.9122C56.811 45.6982 57.4216 42.925 57.7115 39.7104C58.0001 36.5097 58 32.3811 58 27.1557V26.8441C58 21.6188 58.0001 17.4903 57.7115 14.2896C57.4216 11.075 56.811 8.30182 55.2301 6.0878C52.8097 2.69812 49.077 0.497438 44.9504 0.0561192Z" fill="#A7A7A7"/>
</svg>
