<svg width="62" height="82" viewBox="0 0 62 82" fill="none" xmlns="http://www.w3.org/2000/svg">
<path fill-rule="evenodd" clip-rule="evenodd" d="M31 0C20.5066 0 12 8.50659 12 19C12 29.4934 20.5066 38 31 38C41.4934 38 50 29.4934 50 19C50 8.50659 41.4934 0 31 0ZM18 19C18 11.8203 23.8203 6 31 6C38.1797 6 44 11.8203 44 19C44 26.1797 38.1797 32 31 32C23.8203 32 18 26.1797 18 19Z" fill="#737373"/>
<path fill-rule="evenodd" clip-rule="evenodd" d="M19 44C8.50659 44 0 52.5066 0 63C0 73.4934 8.50659 82 19 82H43C53.4934 82 62 73.4934 62 63C62 52.5066 53.4934 44 43 44H19ZM6 63C6 55.8203 11.8203 50 19 50H43C50.1797 50 56 55.8203 56 63C56 70.1797 50.1797 76 43 76H19C11.8203 76 6 70.1797 6 63Z" fill="#737373"/>
</svg>
