<svg width="70" height="78" viewBox="0 0 70 78" fill="none" xmlns="http://www.w3.org/2000/svg">
<path d="M50.1215 0.87868C48.9499 -0.292893 47.0504 -0.292893 45.8788 0.87868C44.7072 2.05025 44.7072 3.94975 45.8788 5.12132L48.7575 8L30.3528 7.99993C23.5277 7.99886 19.3628 7.9982 15.8927 9.1257C8.89067 11.4008 3.40094 16.8905 1.12583 23.8926C-0.00166416 27.3627 -0.00100896 31.5275 6.51121e-05 38.3526V39.6474C-0.00100896 46.4725 -0.00166416 50.6373 1.12583 54.1074C1.63783 55.6832 3.33029 56.5455 4.90605 56.0335C6.48182 55.5215 7.34417 53.8291 6.83217 52.2533C6.03714 49.8064 6.00013 46.6786 6.00013 39C6.00013 31.3214 6.03714 28.1936 6.83217 25.7467C8.51378 20.5713 12.5714 16.5136 17.7468 14.832C20.1937 14.037 23.3215 14 31.0001 14H47.714L45.0796 16.1953C43.8068 17.256 43.6348 19.1477 44.6955 20.4206C45.7562 21.6934 47.6479 21.8654 48.9207 20.8047L54.5558 16.1088C56.0928 14.8279 56.9358 13.0312 57.0587 11.2011C57.1884 9.27079 56.5185 7.27576 55.0242 5.78146L50.1215 0.87868Z" fill="#6D6D6D"/>
<path d="M68.8744 23.8926C68.3624 22.3168 66.67 21.4545 65.0942 21.9665C63.5184 22.4785 62.6561 24.1709 63.1681 25.7467C63.9631 28.1936 64.0001 31.3214 64.0001 39C64.0001 46.6786 63.9631 49.8064 63.1681 52.2533C61.4865 57.4287 57.4289 61.4864 52.2534 63.168C49.8066 63.963 46.6788 64 39.0001 64H31.0001C27.1311 64 24.4178 63.991 22.3631 63.8797L25.1215 61.1213C26.293 59.9497 26.293 58.0503 25.1215 56.8787C23.9499 55.7071 22.0504 55.7071 20.8788 56.8787L15.976 61.7815C14.903 62.8545 14.2505 64.1927 14.0203 65.5813C13.6311 67.9285 14.4494 70.4462 16.4445 72.1088L22.0796 76.8047C23.3524 77.8654 25.2441 77.6934 26.3048 76.4206C27.3655 75.1477 27.1935 73.256 25.9207 72.1953L23.1956 69.9244C25.2328 70.0008 27.582 70.0005 30.3771 70.0001H39.6475C46.4726 70.0011 50.6374 70.0018 54.1075 68.8743C61.1096 66.5992 66.5993 61.1095 68.8744 54.1074C70.0019 50.6373 70.0013 46.4725 70.0002 39.6473V38.3527C70.0013 31.5275 70.0019 27.3627 68.8744 23.8926Z" fill="#6D6D6D"/>
</svg>
