<svg width="87" height="96" viewBox="0 0 87 96" fill="none" xmlns="http://www.w3.org/2000/svg">
<path d="M75.1213 13.8787C73.9497 12.7071 72.0503 12.7071 70.8787 13.8787C69.7071 15.0503 69.7071 16.9497 70.8787 18.1213L73.776 21.0187C66.4391 21.3141 59.6602 25.1013 55.5665 31.2419L35.4412 61.4299C32.2883 66.1593 26.9803 69 21.2963 69H20C18.3431 69 17 70.3431 17 72C17 73.6569 18.3431 75 20 75H21.2963C28.9864 75 36.1678 71.1567 40.4335 64.7581L60.5588 34.5701C63.3094 30.4442 67.7 27.7558 72.5497 27.1368L70.0794 29.1953C68.8066 30.256 68.6346 32.1477 69.6953 33.4206C70.756 34.6934 72.6477 34.8654 73.9206 33.8047L79.5556 29.1088C81.0927 27.8279 81.9356 26.0312 82.0586 24.2011C82.1882 22.2708 81.5184 20.2758 80.0241 18.7815L75.1213 13.8787Z" fill="#6D6D6D"/>
<path d="M20 21C18.3431 21 17 22.3431 17 24C17 25.6569 18.3431 27 20 27H21.2963C26.9803 27 32.2883 29.8407 35.4412 34.5701C36.3602 35.9487 38.2228 36.3212 39.6014 35.4021C40.98 34.4831 41.3525 32.6205 40.4335 31.2419C36.1678 24.8433 28.9864 21 21.2963 21H20Z" fill="#6D6D6D"/>
<path d="M60.5588 61.4299C59.6398 60.0513 57.7772 59.6788 56.3986 60.5979C55.02 61.5169 54.6475 63.3795 55.5665 64.7581C59.4795 70.6275 65.8457 74.3469 72.8076 74.9219L70.0794 77.1953C68.8066 78.256 68.6346 80.1477 69.6953 81.4206C70.756 82.6934 72.6477 82.8654 73.9206 81.8047L79.5556 77.1088C81.0927 75.8279 81.9356 74.0312 82.0586 72.2011C82.1882 70.2708 81.5184 68.2758 80.0241 66.7815L75.1213 61.8787C73.9497 60.7071 72.0503 60.7071 70.8787 61.8787C69.7071 63.0503 69.7071 64.9497 70.8787 66.1213L73.7295 68.9721C68.4178 68.6679 63.5309 65.888 60.5588 61.4299Z" fill="#6D6D6D"/>
</svg>
